<?xml version="1.0" standalone="no"?>
<!DOCTYPE svg PUBLIC "-//W3C//DTD SVG 20010904//EN"
 "http://www.w3.org/TR/2001/REC-SVG-20010904/DTD/svg10.dtd">
<svg version="1.0" xmlns="http://www.w3.org/2000/svg"
 width="494.000000pt" height="494.000000pt" viewBox="0 0 494.000000 494.000000"
 preserveAspectRatio="xMidYMid meet">
<metadata>
Created by potrace 1.14, written by Peter Selinger 2001-2017
</metadata>
<g transform="translate(0.000000,494.000000) scale(0.100000,-0.100000)"
fill="#000000" stroke="none">
<path d="M1620 4425 l0 -51 -50 2 -50 1 0 -51 0 -52 -97 1 -98 0 -5 -50 -5
-50 -47 1 -48 0 0 -101 0 -102 -50 2 -50 2 0 -48 c0 -52 -5 -56 -62 -54 l-38
1 0 -51 0 -50 -47 0 -48 0 -5 -100 -5 -100 -95 0 -95 0 -5 -50 -5 -50 -45 0
-45 0 -5 -50 -5 -50 -45 0 -45 0 -5 -50 -5 -51 -47 1 -48 1 0 -51 0 -51 -48 1
-47 1 -5 -141 c-3 -77 -3 -189 0 -250 l5 -110 48 0 47 1 0 -401 0 -400 48 0
47 0 5 -100 5 -100 45 0 45 0 5 -100 5 -100 45 0 45 0 5 -100 5 -100 45 0 45
0 5 -50 5 -50 45 0 45 0 5 -50 5 -50 45 0 45 0 5 -50 5 -50 45 0 45 0 5 -50 5
-50 48 0 47 1 0 -51 0 -51 48 0 47 1 5 -50 5 -50 95 0 95 0 5 -50 5 -50 95 0
95 0 5 -50 5 -50 145 0 145 0 5 -50 5 -50 595 0 595 0 5 50 5 50 95 0 95 0 5
50 5 50 95 0 95 0 5 50 5 50 95 0 95 0 5 50 5 50 45 0 45 0 5 100 5 100 45 0
45 0 5 50 5 50 48 -1 47 0 0 51 0 51 48 -1 47 0 3 52 3 52 49 -3 49 -3 3 101
3 101 45 0 45 0 5 100 5 100 45 0 45 0 5 100 5 100 48 -1 47 0 -2 450 -3 451
-45 0 -45 0 -5 100 -5 100 -45 0 -45 0 -5 100 -5 100 -45 0 -45 0 -5 100 -5
100 -45 0 -45 0 -5 50 -5 50 -45 0 -45 0 -5 50 -5 50 -45 0 -45 0 -5 50 -5 50
-45 0 -45 0 -5 50 -5 50 -45 0 -45 0 -5 50 -5 50 -95 0 -95 0 -5 50 -5 50 -95
0 -95 0 -5 50 -5 50 -145 0 -145 0 -5 50 -5 50 -95 0 -95 0 -5 50 -5 50 -47 0
-48 -1 0 51 0 50 -400 0 -400 0 0 50 0 50 -200 0 -200 0 0 -50z"/>
</g>
</svg>
